<?xml version="1.0" encoding="UTF-8"?>
<!-- Generator: Adobe Illustrator 24.2.0, SVG Export Plug-In . SVG Version: 6.00 Build 0)  -->
<svg version="1.1" id="Capa_1" xmlns="http://www.w3.org/2000/svg" xmlns:xlink="http://www.w3.org/1999/xlink" x="0px" y="0px" viewBox="0 0 900 264.02" style="enable-background:new 0 0 900 264.02;" xml:space="preserve">
<style type="text/css">
	.st0{fill:#1D8AED;}
	.st1{fill:#FAFAFA;}
</style>
<g>
	<g>
		<g>
			<g>
				<path class="st0" d="M170.4,5.71v49.26c0,15.96-12.95,28.9-28.91,28.89h-0.42l0,0c-8.01-0.05-15.21,0-15.21,0      c-1.37,0-2.87-0.15-4.19-0.02c-9.01,0.93-16.81,5.02-23.39,12.27c-0.18,0.2-0.36,0.41-0.54,0.62      c-5.28,6.86-8.21,15.71-8.21,25.27v0.47c0,6.15,1.25,11.99,3.54,17.22c2.29,5.24,1.12,11.32-3.26,14.99      c-4.3,3.6-9.41,7.84-12.85,10.59c-9.97-11.32-15.82-26.14-15.82-42.34v-0.47c0-35.19,28.16-64.53,66.41-64.53      c2.39,0,10.18,0,13.82,0V0.37c-3.1-0.22-6.21-0.37-9.36-0.37C59.1,0,0,59.1,0,132.01c0,59.55,39.44,109.87,93.61,126.32v-48.88      c0-16.13,13.08-29.21,29.21-29.2h0.13l0,0c8.01,0.06,15.21,0,15.21,0c1.37,0,2.87,0.15,4.19,0.01      c9.01-0.93,16.81-5.01,23.39-12.27c0.19-0.2,0.36-0.41,0.54-0.62c5.28-6.86,8.2-15.71,8.2-25.27v-0.47      c0-4.79-2.01-11.18-4.03-16.37c-2.24-5.75-0.52-12.36,4.22-16.32c4.09-3.42,8.22-6.78,12.39-10.11      c9.97,11.32,15.82,26.14,15.82,42.34v0.47c0,35.2-28.16,64.53-66.41,64.53c-2.39,0-10.18,0-13.82,0v57.48      c3.1,0.22,6.21,0.37,9.36,0.37c72.91,0,132.01-59.1,132.01-132.01C264.02,72.48,224.58,22.16,170.4,5.71z"/>
				<g>
					<g>
						<path class="st1" d="M822.81,117.01v104.17l0,0c16.8,0,30.41-13.62,30.41-30.41V86.6l0,0        C836.43,86.6,822.81,100.21,822.81,117.01z"/>
						<path class="st1" d="M768.09,73.42L768.09,73.42h101.24c16.94,0,30.67-13.73,30.67-30.67l0,0H798.76        C781.82,42.75,768.09,56.48,768.09,73.42z"/>
					</g>
					<path class="st1" d="M408.87,43.16c-3.43,2.74-8.39,6.85-12.76,10.51c-5.13,4.29-6.61,11.37-4.05,17.55       c2.22,5.36,3.42,11.31,3.42,17.54v0.5c0,10.18-3.11,19.6-8.74,26.91c-0.08,0.1-0.17,0.2-0.25,0.3       c-7.08,7.95-15.49,12.42-25.24,13.42c-1.41,0.15-3-0.02-4.46-0.02c0,0-7.66,0.06-16.2,0l0,0h-0.13       c-17.18,0-31.11,13.92-31.11,31.1v60.26l0,0c17.08,0,30.92-13.84,30.92-30.92v-32.83c3.88,0,12.18,0,14.72,0       c40.74,0,70.73-31.24,70.73-68.73v-0.5C425.72,71,419.49,55.22,408.87,43.16z"/>
					<g>
						<path class="st1" d="M659.03,43.14v152.63c0,14.02-11.42,25.37-25.44,25.37h-4.67V68.57c0-14.02,11.36-25.44,25.38-25.44h4.73        V43.14z"/>
					</g>
					<g>
						<path class="st1" d="M613.35,132.49c0.13,12.07-2.14,23.56-6.75,34.39c-4.61,10.9-10.9,20.38-18.95,28.49        c-4.54,4.54-9.47,8.57-14.86,12.07c-4.15,2.73-8.63,5.19-13.3,7.27c-2.92,1.3-5.97,2.47-9.02,3.37        c-3.31,1.04-6.68,1.88-10.06,2.53c-0.13,0-0.19-0.06-0.19-0.13l-0.13-17.52v-0.58c0.06-6.04,3.37-11.29,8.24-14.21        c0.58-0.32,1.23-0.65,1.95-0.97c6.42-3.11,12.07-7.14,17-12.07c5.45-5.45,9.73-11.88,12.85-19.21s4.67-15.12,4.61-23.23v0.01        c0.06-8.11-1.49-15.9-4.61-23.23c-3.11-7.33-7.4-13.76-12.85-19.21c-4.93-4.93-10.58-8.96-17-12.07        c-0.71-0.32-1.36-0.65-1.95-0.97c-4.87-2.92-8.18-8.18-8.24-14.21v-0.58l0.13-17.52c0-0.06,0.06-0.13,0.19-0.13        c3.37,0.65,6.75,1.49,10.06,2.53c3.05,0.91,6.1,2.08,9.02,3.37c4.67,2.08,9.15,4.54,13.3,7.27        c5.39,3.5,10.32,7.53,14.86,12.07c8.05,8.11,14.34,17.59,18.95,28.49c4.61,10.84,6.88,22.32,6.75,34.39V132.49z"/>
						<path class="st1" d="M435.98,132.49c-0.13,12.07,2.14,23.56,6.75,34.39c4.61,10.9,10.9,20.38,18.95,28.49        c4.54,4.54,9.47,8.57,14.86,12.07c4.15,2.73,8.63,5.19,13.3,7.27c2.92,1.3,5.97,2.47,9.02,3.37        c3.31,1.04,6.68,1.88,10.06,2.53c0.13,0,0.19-0.06,0.19-0.13l0.13-17.52v-0.58c-0.06-6.04-3.37-11.29-8.24-14.21        c-0.58-0.32-1.23-0.65-1.95-0.97c-6.42-3.11-12.07-7.14-17-12.07c-5.45-5.45-9.73-11.88-12.85-19.21s-4.67-15.12-4.61-23.23        v0.01c-0.06-8.11,1.49-15.9,4.61-23.23c3.11-7.33,7.4-13.76,12.85-19.21c4.93-4.93,10.58-8.96,17-12.07        c0.71-0.32,1.36-0.65,1.95-0.97c4.87-2.92,8.18-8.18,8.24-14.21v-0.58l-0.13-17.52c0-0.06-0.07-0.13-0.19-0.13        c-3.37,0.65-6.75,1.49-10.06,2.53c-3.05,0.91-6.1,2.08-9.02,3.37c-4.67,2.08-9.15,4.54-13.3,7.27        c-5.39,3.5-10.32,7.53-14.86,12.07c-8.05,8.11-14.34,17.59-18.95,28.49c-4.61,10.84-6.88,22.32-6.75,34.39V132.49z"/>
					</g>
					<path class="st1" d="M679.57,139.19c-2.53-4.41-2.73-9.73-0.65-14.34l39.49-67.31c4.01-8.77,12.76-14.4,22.4-14.4h17.33       l-1.88,4.22l-46.84,84.88l61.51,88.91h-21.56c-8.86,0-17.03-4.76-21.41-12.46L679.57,139.19z"/>
				</g>
			</g>
		</g>
	</g>
</g>
</svg>