<svg version="1.1" id="Capa_1" xmlns="http://www.w3.org/2000/svg" xmlns:xlink="http://www.w3.org/1999/xlink" x="0px" y="0px" viewBox="0 0 299.99 300.01" style="enable-background:new 0 0 299.99 300.01;" xml:space="preserve" width="299.99"  height="300.01" >
<style type="text/css">
	.st0{fill:#1D8AED;}
</style>
<path class="st0" d="M193.62,6.47v55.98c0,18.14-14.71,32.84-32.85,32.83h-0.48l0,0c-9.11-0.06-17.28,0-17.28,0  c-1.56,0-3.26-0.17-4.76-0.02c-10.24,1.05-19.1,5.7-26.58,13.94c-0.21,0.23-0.4,0.47-0.61,0.7c-6,7.8-9.32,17.85-9.32,28.71v0.53  c0,6.98,1.42,13.63,4.02,19.57c2.61,5.95,1.28,12.86-3.7,17.03c-4.89,4.09-10.69,8.91-14.6,12.04  c-11.33-12.87-17.98-29.7-17.98-48.11v-0.53c0-39.99,32-73.32,75.46-73.32c2.71,0,11.57,0,15.7,0V0.42C157.12,0.17,153.58,0,150,0  C67.16,0,0,67.16,0,150c0,67.67,44.81,124.85,106.37,143.53V238c0-18.33,14.86-33.19,33.19-33.18h0.14l0,0  c9.11,0.06,17.28,0,17.28,0c1.56,0,3.26,0.17,4.76,0.02c10.24-1.05,19.1-5.7,26.58-13.94c0.21-0.23,0.41-0.47,0.61-0.7  c6-7.8,9.32-17.85,9.32-28.71v-0.53c0-5.45-2.29-12.7-4.58-18.61c-2.54-6.54-0.59-14.05,4.79-18.55c4.64-3.89,9.35-7.71,14.08-11.49  c11.33,12.87,17.98,29.7,17.98,48.11v0.53c0,39.99-32,73.32-75.46,73.32c-2.71,0-11.57,0-15.71,0v65.32  c3.52,0.25,7.06,0.42,10.64,0.42c82.84,0,150-67.16,150-150C299.99,82.34,255.18,25.16,193.62,6.47z"/>
</svg>