<?xml version="1.0" encoding="UTF-8"?>
<svg width="266px" height="300px" viewBox="0 0 266 300" version="1.1" xmlns="http://www.w3.org/2000/svg" xmlns:xlink="http://www.w3.org/1999/xlink">
    <!-- Generator: Sketch 64 (93537) - https://sketch.com -->
    <title>storj-logo-mark-color</title>
    <desc>Created with Sketch.</desc>
    <g id="Page-1" stroke="none" stroke-width="1" fill="none" fill-rule="evenodd">
        <g id="storj-logo-mark-color" transform="translate(-1.000000, 0.000000)" fill="#276CFF" fill-rule="nonzero">
            <g id="Group-75-Copy">
                <g id="Group-74-Copy-2">
                    <g id="Group-73" transform="translate(133.901937, 150.000000) rotate(-180.000000) translate(-133.901937, -150.000000) translate(0.401937, -0.000000)">
                        <path d="M133.348324,0.589010863 C146.977514,0.589010863 158.069519,11.4519922 158.438447,24.9920644 L229.064069,65.7669375 C232.736797,63.7780101 236.698852,62.7993438 240.622378,62.7430892 L241.010484,62.7405301 C249.674848,62.7504747 258.098224,67.2511861 262.742037,75.2945054 C269.556863,87.0981302 265.694754,102.136198 254.15226,109.225437 L254.15226,190.774563 C265.694754,197.863802 269.556863,212.90187 262.742037,224.705495 C258.167535,232.628764 249.92545,237.114387 241.398268,237.256027 L241.010484,237.259486 C236.960508,237.264119 232.857879,236.287579 229.063986,234.233017 L158.438453,275.007715 C158.07339,288.410175 147.20211,299.189738 133.763392,299.407627 L133.348324,299.410989 C119.719135,299.410989 108.62713,288.548008 108.258201,275.007936 L37.6335787,234.232521 C33.9605707,236.221812 29.9981523,237.200651 26.0742704,237.256911 L25.6861645,237.25947 C17.0218012,237.249525 8.59842482,232.748814 3.95461221,224.705495 C-2.86001737,212.90221 1.0016722,197.864668 12.5433913,190.775176 L12.5433913,109.224824 C1.0016722,102.135332 -2.86001737,87.0977901 3.95461221,75.2945054 C8.52911418,67.3712356 16.7711991,62.8856135 25.2983808,62.7439734 L25.6861645,62.7405136 C29.7363987,62.7358806 33.8392929,63.7125456 37.633388,65.7673753 L108.258195,24.992285 C108.623258,11.5898254 119.494539,0.810261823 132.933257,0.592373493 L133.348324,0.589010863 Z M133.348324,262.359196 L133.020504,262.363605 C133.005803,262.364001 132.991109,262.364423 132.976422,262.364872 L133.020617,262.363615 C132.915039,262.366465 132.809732,262.370688 132.704716,262.376272 L132.976422,262.364872 C132.863925,262.368311 132.751819,262.373304 132.640124,262.37983 L132.704716,262.376272 C132.599021,262.381892 132.493621,262.388889 132.388536,262.39725 L132.640124,262.37983 C132.49626,262.388237 132.35308,262.399188 132.210627,262.412639 L132.388536,262.39725 C132.300402,262.404262 132.21249,262.412234 132.124812,262.421156 L132.210627,262.412639 C132.109662,262.422173 132.009061,262.432963 131.908842,262.444993 L132.124812,262.421156 C132.013394,262.432494 131.902355,262.445369 131.791719,262.459761 L131.908842,262.444993 C131.820309,262.45562 131.732074,262.467215 131.644147,262.479767 L131.791719,262.459761 C131.675119,262.47493 131.558966,262.491786 131.44329,262.510309 L131.644147,262.479767 C131.54071,262.494534 131.4377,262.510624 131.335135,262.528021 L131.44329,262.510309 C131.343281,262.526323 131.24363,262.543583 131.144353,262.562077 L131.335135,262.528021 C131.234736,262.545051 131.134763,262.563333 131.035233,262.58285 L131.144353,262.562077 C131.0536,262.578983 130.96316,262.596919 130.873048,262.615877 L131.035233,262.58285 C130.658092,262.656804 130.287308,262.748496 129.923786,262.857021 C129.89309,262.865858 129.862546,262.875095 129.832048,262.884451 L129.923786,262.857021 C129.849851,262.879093 129.776217,262.901861 129.702891,262.925319 L129.832048,262.884451 C129.739695,262.912783 129.647771,262.942214 129.556294,262.972733 L129.702891,262.925319 C129.588445,262.96193 129.474749,263.000219 129.361832,263.040158 L129.556294,262.972733 C129.463406,263.003722 129.370979,263.035833 129.279029,263.069053 L129.361832,263.040158 C124.7209,264.681626 121.396133,269.108236 121.396133,274.311388 C121.396133,280.9124 126.747311,286.263579 133.348324,286.263579 C139.949337,286.263579 145.300516,280.9124 145.300516,274.311388 C145.300516,269.446204 142.393638,265.259958 138.221955,263.394721 C138.207705,263.386911 138.192714,263.380259 138.177707,263.373637 L138.221955,263.394721 C137.958779,263.27705 137.690569,263.168617 137.417738,263.069833 C137.389913,263.059043 137.362265,263.04917 137.334575,263.039398 L137.417738,263.069833 C137.325759,263.03653 137.233255,263.004324 137.140241,262.973231 L137.334575,263.039398 C137.221634,262.999538 137.107984,262.961347 136.993658,262.924847 L137.140241,262.973231 C137.048554,262.94258 136.956372,262.913011 136.86371,262.884538 L136.993658,262.924847 C136.926851,262.903518 136.859813,262.882766 136.792551,262.862596 L136.86371,262.884538 C136.523231,262.779917 136.176274,262.690096 135.823588,262.615824 C135.769528,262.604501 135.715401,262.593506 135.66116,262.58288 L135.823588,262.615824 C135.733619,262.596878 135.643278,262.578943 135.552576,262.562033 L135.66116,262.58288 C135.561554,262.563366 135.461562,262.545096 135.361202,262.528083 L135.552576,262.562033 C135.453307,262.543526 135.353606,262.526245 135.25349,262.510208 L135.361202,262.528083 C135.258739,262.510714 135.155894,262.494655 135.052686,262.479919 L135.25349,262.510208 C135.136771,262.491512 135.019488,262.474505 134.901667,262.459215 L135.052686,262.479919 C134.966183,262.467569 134.879425,262.456148 134.792424,262.445666 L134.901667,262.459215 C134.792548,262.445053 134.682966,262.432364 134.572944,262.421166 L134.792424,262.445666 C134.686683,262.432926 134.580583,262.421571 134.474146,262.411617 L134.572944,262.421166 C134.486254,262.412343 134.399291,262.404447 134.312063,262.397487 L134.474146,262.411617 C134.33699,262.398791 134.199275,262.38829 134.061046,262.380145 L134.312063,262.397487 C134.205125,262.388955 134.09779,262.38183 133.990077,262.376131 L134.061046,262.380145 C133.948396,262.373508 133.835406,262.368436 133.722099,262.364946 L133.990077,262.376131 C133.777584,262.364889 133.563619,262.359196 133.348324,262.359196 Z M94.4946335,180.330457 L50.0314133,206.000889 C50.0729791,206.164908 50.1128214,206.329146 50.1509469,206.493577 C50.2716718,207.01421 50.3752552,207.537217 50.4618093,208.061386 C50.4934624,208.253061 50.5228835,208.44521 50.5500302,208.637477 C50.6494085,209.341408 50.7182779,210.046498 50.7572041,210.751262 C50.758314,210.771365 50.7593777,210.791051 50.760418,210.810737 L50.7572041,210.751262 C50.763721,210.869253 50.7693987,210.987234 50.7742395,211.105198 C50.7772791,211.17928 50.7799843,211.253217 50.7823611,211.327145 C50.804482,212.015472 50.7981644,212.702639 50.7638925,213.387241 C50.7610595,213.443808 50.7580671,213.499801 50.754888,213.555776 C50.7507392,213.62884 50.7462502,213.702206 50.7414405,213.775539 C50.7372639,213.839219 50.7328485,213.902831 50.7281921,213.966415 C50.6933308,214.442442 50.6449619,214.916933 50.5832418,215.389339 C50.5677465,215.507922 50.5514804,215.625889 50.5343824,215.743716 C50.52033,215.840564 50.5056555,215.937702 50.4904158,216.034739 C50.4383121,216.366488 50.3796448,216.696855 50.3144371,217.025843 C50.3025062,217.086038 50.2903338,217.146296 50.277942,217.206507 C50.2631643,217.278305 50.2481684,217.349598 50.2328649,217.420822 C50.2162653,217.49808 50.1992668,217.575422 50.1819056,217.652679 C50.1682152,217.713601 50.1542858,217.774529 50.1401308,217.835403 C50.1212916,217.916418 50.1020921,217.997176 50.0824952,218.077836 C50.0690129,218.133328 50.0553643,218.188687 50.0415285,218.243999 C49.9427264,218.638984 49.8343613,219.031614 49.7165497,219.421449 C49.7047999,219.460328 49.6930215,219.498966 49.6811502,219.537576 C49.6519628,219.632505 49.6222444,219.727171 49.5919674,219.821664 C49.5729093,219.881145 49.5535401,219.940831 49.533948,220.000446 C49.5108948,220.070591 49.4875542,220.140576 49.463906,220.21046 C49.4483783,220.256346 49.4327837,220.301998 49.4170578,220.347607 C49.3834535,220.445064 49.3493146,220.542142 49.3145798,220.639016 C49.3016639,220.67504 49.2885645,220.711313 49.2753815,220.747558 C49.2426904,220.837432 49.2096281,220.92675 49.1760575,221.015886 C49.1558825,221.069458 49.135363,221.123383 49.1146574,221.17724 C49.0898296,221.241816 49.0649106,221.305846 49.039728,221.36978 C48.9553978,221.583874 48.8681646,221.796754 48.7779978,222.008476 C48.7322113,222.115987 48.685708,222.22311 48.6384519,222.329926 C48.6293677,222.350459 48.6201883,222.371133 48.6109806,222.391796 C48.5678035,222.488685 48.5240704,222.585181 48.4797203,222.681416 C48.4587213,222.726981 48.4376678,222.772309 48.4164773,222.817578 C48.3670063,222.923261 48.3168117,223.028578 48.2658734,223.133567 C48.2598816,223.145916 48.2540475,223.157916 48.2482036,223.169912 C48.2003407,223.268164 48.1516438,223.366489 48.1022921,223.464517 C48.0756417,223.517451 48.0489032,223.570098 48.0219755,223.622658 C47.9387859,223.785036 47.8537286,223.946696 47.7668717,224.107489 C47.6579502,224.309116 47.5465051,224.508849 47.4322625,224.707159 L47.4322625,224.707159 L111.60773,261.759638 L111.60773,261.759638 L111.739862,261.533992 C111.748612,261.519224 111.757378,261.504467 111.766158,261.48972 C111.878591,261.300882 111.993138,261.114111 112.110039,260.928975 C112.145377,260.873011 112.180881,260.817273 112.216598,260.761685 C112.249055,260.711169 112.281887,260.660472 112.314897,260.609901 C112.352673,260.552029 112.390656,260.494361 112.42887,260.436859 C112.456855,260.394749 112.484903,260.352819 112.513073,260.310978 C113.041608,259.525953 113.613459,258.772283 114.225114,258.05353 C114.266222,258.005226 114.307136,257.957514 114.348224,257.909957 C114.389106,257.862639 114.430312,257.815305 114.471691,257.768127 C114.517053,257.716407 114.562735,257.664752 114.608626,257.613287 C114.652231,257.564385 114.695921,257.515771 114.739796,257.467329 C114.781295,257.421511 114.822954,257.375854 114.864779,257.330353 C115.003344,257.179606 115.143746,257.030541 115.285934,256.883212 C115.426623,256.737435 115.569096,256.593321 115.713286,256.450941 C116.180393,255.989684 116.665667,255.54648 117.167808,255.122628 C117.231019,255.069271 117.294664,255.016083 117.358575,254.963206 C117.395149,254.932946 117.431577,254.90298 117.468091,254.873115 C117.527995,254.824116 117.58831,254.775245 117.648854,254.726649 C117.698472,254.686824 117.748153,254.647255 117.797987,254.607871 C117.844505,254.571108 117.891176,254.534491 117.93798,254.498036 C117.997944,254.45133 118.058306,254.404751 118.118886,254.358442 C118.166361,254.322152 118.213698,254.286232 118.261166,254.250476 C118.324231,254.202971 118.387582,254.155717 118.451162,254.108756 C118.489855,254.080176 118.528871,254.051531 118.567973,254.022996 C118.648457,253.964263 118.729021,253.9062 118.809941,253.848604 C118.837151,253.829236 118.864527,253.809833 118.891944,253.790483 C119.18973,253.580318 119.492259,253.376493 119.79937,253.17918 C119.981625,253.062093 120.164778,252.947734 120.349492,252.83569 C120.545574,252.716755 120.743058,252.600633 120.942247,252.487159 C121.004524,252.451679 121.067418,252.416207 121.13048,252.380999 C121.182714,252.351838 121.234438,252.323201 121.286273,252.294743 C121.335161,252.267899 121.384844,252.240839 121.434629,252.213941 C121.509609,252.173433 121.584267,252.133587 121.659149,252.094108 C121.723535,252.060162 121.788209,252.026424 121.853047,251.992961 C121.886751,251.975566 121.920742,251.958121 121.954779,251.940751 C122.038194,251.898184 122.12156,251.856228 122.20519,251.814724 C122.267833,251.783635 122.330839,251.752696 122.393993,251.722014 C122.433461,251.702839 122.472808,251.683851 122.512212,251.664963 C122.605059,251.620455 122.698268,251.576481 122.791789,251.533066 C122.823646,251.518277 122.855671,251.503492 122.887732,251.488773 C122.965116,251.453246 123.042719,251.418098 123.120532,251.383335 C123.296877,251.304555 123.473822,251.22795 123.651809,251.153337 C123.853262,251.068888 124.055915,250.987043 124.259861,250.907787 C124.3729,250.86386 124.486224,250.820769 124.599937,250.778479 C124.925261,250.657495 125.253513,250.543149 125.584788,250.435505 C125.624061,250.422744 125.663352,250.410084 125.702686,250.397519 C125.782979,250.37187 125.863391,250.346632 125.943975,250.321788 C125.998499,250.304979 126.053205,250.288319 126.10799,250.271842 C126.195681,250.245468 126.283405,250.219609 126.371327,250.194219 C126.410849,250.182805 126.450545,250.171448 126.490282,250.160187 C126.528723,250.149292 126.567138,250.138505 126.605591,250.127807 L126.605429,201.790132 C112.873132,200.092797 101.079966,191.910662 94.4946335,180.330457 Z M169.916152,179.310829 C163.772327,190.849201 152.662261,199.022611 139.752559,201.402959 L139.752325,250.03613 C139.776707,250.042545 139.801076,250.048996 139.825429,250.055482 C139.852051,250.062581 139.879091,250.069831 139.906112,250.077126 C140.014445,250.106363 140.122083,250.1362 140.229428,250.166734 C140.26456,250.176737 140.299951,250.186889 140.33531,250.197116 C140.431239,250.224853 140.526605,250.253059 140.621733,250.281814 C140.663182,250.294355 140.7049,250.307085 140.746573,250.319921 C140.840909,250.348966 140.934813,250.378501 141.028476,250.408572 C141.070416,250.422052 141.112074,250.435548 141.153684,250.449151 C141.222679,250.471688 141.291963,250.494673 141.361113,250.517952 C141.433816,250.542444 141.506083,250.567144 141.578199,250.592163 C141.66082,250.62081 141.742919,250.649777 141.824821,250.679157 C141.854581,250.689852 141.8849,250.700794 141.915191,250.711793 C141.995243,250.740841 142.074517,250.770085 142.153602,250.799716 C142.220554,250.824823 142.287517,250.850243 142.354342,250.87594 C142.425029,250.903097 142.49584,250.930698 142.566495,250.958611 C142.611664,250.976481 142.656921,250.994514 142.702114,251.012675 C142.7684,251.039286 142.83412,251.066024 142.899701,251.093031 C143.137836,251.19113 143.374128,251.292756 143.608513,251.397872 C143.932421,251.543096 144.25274,251.695049 144.569242,251.853495 C144.639919,251.888925 144.710722,251.924793 144.781332,251.960986 C144.822694,251.982135 144.863939,252.003421 144.905117,252.024817 C144.961104,252.053964 145.016862,252.083205 145.072495,252.11265 C145.155258,252.156394 145.237927,252.200742 145.320317,252.245538 C145.348699,252.261031 145.376749,252.276352 145.404767,252.291726 C145.48517,252.33578 145.565519,252.380443 145.645596,252.425533 C145.693101,252.45235 145.740438,252.47921 145.787678,252.506219 C145.863275,252.549367 145.938881,252.593117 146.014236,252.637248 C146.052371,252.659657 146.09004,252.681851 146.127646,252.704141 C146.214279,252.755412 146.300941,252.807487 146.387261,252.860068 C146.411051,252.874641 146.434342,252.888882 146.457609,252.90316 C146.523709,252.943639 146.590036,252.984766 146.656157,253.026193 C146.734044,253.075083 146.811286,253.124071 146.888241,253.173468 C147.070659,253.290465 147.251549,253.40991 147.430782,253.531613 C147.457435,253.549817 147.484397,253.568202 147.511322,253.586637 C147.569596,253.626431 147.627365,253.666343 147.684958,253.706491 C148.010324,253.933416 148.330291,254.167913 148.644374,254.40968 C148.919378,254.621227 149.189273,254.837989 149.45451,255.06013 C149.478934,255.080758 149.503314,255.101256 149.527654,255.1218 C150.773351,256.172966 151.915347,257.343492 152.935989,258.615563 C152.97617,258.666014 153.016369,258.716514 153.056378,258.767172 C153.097466,258.818816 153.138183,258.870787 153.178699,258.922923 C153.222457,258.979621 153.266313,259.036557 153.30993,259.093686 C153.348199,259.143409 153.385882,259.193147 153.423384,259.24303 C153.455554,259.286232 153.487939,259.329601 153.520188,259.373077 C153.579418,259.452509 153.637786,259.532174 153.695695,259.612194 C153.714686,259.638873 153.734135,259.66586 153.753531,259.692887 C154.231463,260.358405 154.677225,261.048074 155.089037,261.759842 L219.264732,224.70776 C219.150291,224.509118 219.038657,224.309049 218.929848,224.10762 C218.900479,224.053251 218.871386,223.998915 218.842498,223.944482 C218.818099,223.898506 218.79397,223.852697 218.769986,223.806821 C218.662013,223.600285 218.557074,223.392563 218.455087,223.183535 C218.441643,223.155981 218.42822,223.128342 218.414849,223.100681 C218.301386,222.86595 218.19169,222.629709 218.085731,222.391936 C218.062713,222.34028 218.040086,222.289043 218.017632,222.237737 C217.921622,222.018356 217.828704,221.79751 217.73898,221.575458 L217.728526,221.549545 C217.700293,221.479449 217.672378,221.409234 217.644781,221.338901 C217.623689,221.285144 217.602834,221.23145 217.582164,221.17769 C217.503544,220.973202 217.427605,220.767735 217.354366,220.561355 C217.340269,220.521635 217.326058,220.481266 217.31195,220.440864 C217.285162,220.36414 217.258934,220.287848 217.233073,220.211436 C217.157968,219.989519 217.085957,219.766567 217.017067,219.542677 C217.004525,219.50191 216.99222,219.461558 216.980017,219.421176 C216.920419,219.223971 216.863164,219.025775 216.808345,218.826911 C216.739714,218.577922 216.675005,218.328305 216.61413,218.07774 C216.561665,217.861795 216.512026,217.645047 216.465253,217.427655 C216.455954,217.384433 216.446815,217.341406 216.437787,217.298354 C216.359653,216.925743 216.289885,216.551008 216.228621,216.174723 C216.186111,215.913615 216.147723,215.651964 216.11345,215.389669 C216.051687,214.916933 216.003318,214.442442 215.96846,213.966462 C215.963772,213.902458 215.959306,213.838087 215.955087,213.77369 C215.950317,213.700872 215.945872,213.628172 215.941742,213.555442 C215.938559,213.499379 215.935566,213.443362 215.932761,213.387329 C215.920946,213.151328 215.912456,212.915111 215.907304,212.678661 C215.901848,212.428385 215.900136,212.177563 215.902195,211.926565 C215.902689,211.866385 215.9034,211.806153 215.904329,211.745911 C215.90526,211.685593 215.906401,211.625584 215.907759,211.565567 C215.90955,211.486356 215.911723,211.406934 215.914276,211.327501 C215.916636,211.254088 215.919317,211.180703 215.922323,211.107312 C215.925018,211.041511 215.927967,210.975816 215.931177,210.910117 C215.935685,210.817855 215.940706,210.725563 215.946242,210.633267 C215.949731,210.575078 215.953432,210.516791 215.957337,210.458504 C215.959258,210.429838 215.961226,210.401205 215.963244,210.372571 L215.974565,210.218696 C216.025082,209.559868 216.101874,208.901174 216.205356,208.24416 C216.220295,208.149308 216.235824,208.054285 216.251914,207.959302 C216.261976,207.899898 216.272302,207.84026 216.282848,207.780638 C216.290859,207.735354 216.298951,207.690334 216.30717,207.645324 C216.328992,207.525802 216.351766,207.406043 216.375437,207.286365 C216.376204,207.282485 216.37693,207.278819 216.377657,207.275153 L216.375437,207.286365 C216.44304,206.944576 216.517965,206.60345 216.600272,206.263206 Z M19.7154092,201.804793 C13.9987643,205.105299 12.0400971,212.415144 15.3406036,218.131789 C18.64111,223.848434 25.9509555,225.807101 31.6676004,222.506595 C36.1705538,219.906814 38.3418395,214.819405 37.4477783,209.982497 C37.4389735,209.931516 37.4292326,209.88085 37.4191579,209.830228 L37.4477783,209.982497 C37.429353,209.882816 37.4096259,209.783241 37.3885905,209.683797 L37.4191579,209.830228 C37.3964979,209.716371 37.3721488,209.602735 37.346108,209.489356 L37.3885905,209.683797 C37.3670571,209.581998 37.3441527,209.480336 37.3198704,209.378836 L37.346108,209.489356 C37.3224577,209.386386 37.2974121,209.283628 37.2709691,209.18111 L37.3198704,209.378836 C37.2935011,209.268612 37.265507,209.15858 37.2358791,209.048772 L37.2709691,209.18111 C37.2430654,209.072928 37.2136057,208.965012 37.1825877,208.857394 L37.2358791,209.048772 C37.2089318,208.948899 37.180633,208.849212 37.1509761,208.749735 L37.1825877,208.857394 C37.0840413,208.515485 36.9697661,208.176583 36.8396884,207.841697 C36.8165246,207.781722 36.7928211,207.722121 36.768604,207.662632 L36.8396884,207.841697 C36.7945373,207.725456 36.7474823,207.609698 36.6985203,207.494467 L36.768604,207.662632 C36.7344205,207.57866 36.6992137,207.494911 36.6629791,207.411402 L36.6985203,207.494467 C36.6507883,207.38213 36.601244,207.270294 36.5498844,207.158997 L36.6629791,207.411402 C36.6147518,207.300252 36.5647039,207.189526 36.5128256,207.079261 L36.5498844,207.158997 C36.5020356,207.055308 36.4526113,206.952087 36.401609,206.849366 L36.5128256,207.079261 C36.4672051,206.982296 36.4201691,206.885687 36.3717108,206.789459 L36.401609,206.849366 C36.289506,206.623584 36.1697798,206.400216 36.0424061,206.179598 C35.879487,205.897414 35.7064158,205.623816 35.5238273,205.35911 C35.485808,205.30384 35.4471242,205.248741 35.4080435,205.194057 L35.5238273,205.35911 C35.4645056,205.273109 35.4041792,205.188047 35.34287,205.103934 L35.4080435,205.194057 C35.3414128,205.100825 35.2736285,205.008801 35.2047217,204.917993 L35.34287,205.103934 C35.2846939,205.024119 35.2256328,204.945159 35.1657053,204.867063 L35.2047217,204.917993 C35.1503132,204.846292 35.0952049,204.775349 35.0394121,204.705169 L35.1657053,204.867063 C35.091178,204.769941 35.0153108,204.674154 34.9381394,204.579721 L35.0394121,204.705169 C34.9762854,204.625763 34.9122825,204.547334 34.8474256,204.469887 L34.9381394,204.579721 C34.8635173,204.488407 34.7876757,204.398358 34.710647,204.30959 L34.8474256,204.469887 C34.7821604,204.391952 34.7160304,204.315012 34.6490582,204.239072 L34.710647,204.30959 C34.6348687,204.222263 34.5579415,204.136175 34.4798962,204.051342 L34.6490582,204.239072 C34.5771021,204.157481 34.5041739,204.077045 34.4303016,203.997772 L34.4798962,204.051342 C34.3473566,203.907275 34.2115923,203.766826 34.0727543,203.630068 C30.3380461,199.95439 24.4746157,199.057063 19.7154092,201.804793 Z M233.387075,202.941713 L233.174759,203.120665 C233.150589,203.141641 233.126498,203.16272 233.102486,203.183901 L233.175191,203.121063 C233.052638,203.227286 232.932002,203.33625 232.813381,203.447927 C232.700704,203.553685 232.589819,203.662338 232.480918,203.773319 C232.368662,203.887775 232.258054,204.005066 232.149573,204.124925 C232.122135,204.15531 232.094868,204.185763 232.067744,204.216372 L232.149573,204.124925 C232.084088,204.197278 232.019378,204.270566 231.955463,204.344785 L232.067744,204.216372 C231.916355,204.387215 231.76941,204.562922 231.627147,204.743376 C231.603828,204.772752 231.580418,204.802738 231.557132,204.83286 L231.627147,204.743376 C231.571102,204.814467 231.515784,204.886295 231.461207,204.958853 L231.557132,204.83286 C231.489916,204.919809 231.423737,205.007895 231.358624,205.09711 L231.461207,204.958853 C231.170447,205.345407 230.900726,205.752676 230.654243,206.179598 C230.545525,206.367904 230.442378,206.558213 230.344787,206.750316 C230.31828,206.802389 230.292373,206.854302 230.266878,206.906323 L230.344787,206.750316 C230.291436,206.855336 230.239745,206.960893 230.189713,207.066951 L230.266878,206.906323 C230.214837,207.012508 230.164513,207.119143 230.115899,207.226193 L230.189713,207.066951 C230.143332,207.165268 230.098376,207.264017 230.054843,207.36317 L230.115899,207.226193 C230.074481,207.317394 230.034304,207.408898 229.995361,207.500681 L230.054843,207.36317 C230.00175,207.484097 229.950774,207.605626 229.90191,207.727707 L229.995361,207.500681 C229.952685,207.601266 229.911491,207.702187 229.871772,207.803418 L229.90191,207.727707 C229.868403,207.811421 229.83589,207.895395 229.804368,207.979613 L229.871772,207.803418 C229.828355,207.914077 229.7867,208.025106 229.746799,208.136469 L229.642291,208.441234 C229.608644,208.543738 229.576437,208.646554 229.545665,208.749655 C229.534954,208.785687 229.524414,208.821666 229.51405,208.857672 L229.545665,208.749655 C229.516037,208.848923 229.487741,208.948456 229.460774,209.048226 L229.51405,208.857672 C229.483019,208.965479 229.453575,209.073523 229.425711,209.18177 L229.460774,209.048226 C229.431106,209.157993 229.403047,209.268049 229.376595,209.37836 L229.425711,209.18177 C229.399321,209.284288 229.374348,209.386988 229.350785,209.489845 L229.376595,209.37836 C229.352273,209.479792 229.329309,209.58144 229.307702,209.683279 L229.350785,209.489845 C229.324793,209.6033 229.300516,209.716945 229.277944,209.830745 L229.307702,209.683279 C229.286589,209.782788 229.266772,209.882479 229.248249,209.982328 L229.277944,209.830745 C228.309625,214.712666 230.478977,219.87961 235.029048,222.506595 C240.745693,225.807101 248.055539,223.848434 251.356045,218.131789 C254.656552,212.415144 252.697885,205.105299 246.98124,201.804793 C242.53496,199.237732 237.124893,199.852147 233.387075,202.941713 Z M223.505807,105.846694 L195.031858,122.285048 C199.873295,128.24555 202.774809,135.845327 202.774809,144.122789 C202.774809,156.579587 196.203633,167.501605 186.338558,173.611531 L222.927593,194.734779 C223.492106,194.148081 224.081667,193.592895 224.693557,193.069952 C225.060798,192.756097 225.435967,192.453944 225.818586,192.163555 C225.935987,192.074453 226.054152,191.986412 226.173003,191.899485 C226.558363,191.617617 226.951459,191.347111 227.351195,191.088496 L227.363657,191.080439 C227.436818,191.033168 227.510202,190.986295 227.583805,190.939821 C227.926172,190.723638 228.273478,190.515971 228.62516,190.317047 C228.758416,190.241668 228.892781,190.167284 229.027759,190.094169 C229.206262,189.997482 229.385461,189.903207 229.565682,189.811154 L229.58175,189.802954 C229.954498,189.612901 230.33161,189.432352 230.712685,189.261415 C231.10072,189.087358 231.492752,188.92331 231.888467,188.769336 L231.908276,188.761637 C231.943823,188.747841 231.979399,188.734125 232.015005,188.720491 C232.181291,188.656818 232.347937,188.595019 232.515191,188.534997 C232.659803,188.483099 232.805082,188.432456 232.950796,188.383151 C233.13104,188.322163 233.311786,188.263273 233.493158,188.206435 C233.526042,188.19613 233.558657,188.185982 233.591293,188.175901 C233.826101,188.103362 234.062239,188.034177 234.299332,187.968458 L234.322941,187.961926 C234.397212,187.941416 234.471578,187.921247 234.546034,187.901418 C234.740791,187.849551 234.936119,187.800027 235.132022,187.752845 C235.622231,187.63478 236.116169,187.531356 236.613002,187.442795 C236.947329,187.383199 237.283063,187.33032 237.619892,187.284232 C237.673017,187.276965 237.725582,187.269942 237.778173,187.263086 C238.004312,187.233601 238.231083,187.207159 238.458266,187.183798 L238.488122,187.180746 C238.511111,187.17841 238.534105,187.176105 238.557103,187.173832 C238.813714,187.148468 239.070836,187.127034 239.328377,187.109556 C239.561681,187.093724 239.795211,187.081142 240.029014,187.071822 C240.079736,187.069801 240.130167,187.067943 240.18061,187.066238 C240.191912,187.065855 240.203908,187.065458 240.215904,187.065069 C240.479139,187.056545 240.742046,187.052158 241.005175,187.051912 L240.948712,187.052011 L240.999804,187.051901 L241.005175,187.051912 L241.005175,112.948088 C240.739378,112.94784 240.473807,112.943365 240.208565,112.934692 C239.851293,112.923007 239.494821,112.903718 239.139193,112.876888 C238.330078,112.815842 237.525383,112.715761 236.727992,112.577428 C235.889246,112.431939 235.058081,112.243987 234.238427,112.014578 C234.015937,111.952304 233.794521,111.887045 233.574019,111.818757 C233.264354,111.722859 232.956114,111.620853 232.649872,111.512906 C232.394894,111.423033 232.140931,111.328899 231.888467,111.230664 C231.045139,110.902391 230.2216,110.529944 229.418722,110.113171 C228.725551,109.753369 228.047261,109.360195 227.387007,108.934629 C227.336481,108.902063 227.286082,108.869321 227.23579,108.83639 C226.831605,108.571729 226.434343,108.29487 226.044579,108.005954 C225.937042,107.926245 225.829746,107.845365 225.723038,107.763565 C225.403274,107.518433 225.089189,107.265382 224.780707,107.004184 C224.476877,106.746929 224.178365,106.48166 223.885622,106.20857 C223.757976,106.089494 223.631328,105.968835 223.505807,105.846694 Z M42.7337304,106.280371 L42.5174372,106.478088 C42.2705918,106.701082 42.0198241,106.918635 41.7653244,107.130698 L41.7566451,107.137926 C41.4815987,107.366898 41.2021989,107.589461 40.9186855,107.805549 C40.6548205,108.006653 40.3878275,108.201844 40.1174757,108.391395 C39.8509905,108.578227 39.5816052,108.759345 39.3091488,108.934947 C39.193754,109.009326 39.0771881,109.0831 38.9600796,109.155871 C38.5683081,109.399332 38.1697943,109.631925 37.7657204,109.853104 C37.6353036,109.924491 37.5042777,109.994705 37.3726902,110.063724 C37.090574,110.211698 36.8058163,110.354211 36.5186535,110.491185 C36.207222,110.63973 35.8932102,110.781654 35.5765994,110.917012 C35.0007158,111.163216 34.4161511,111.387727 33.8243413,111.590147 C33.4810034,111.707576 33.1355009,111.81749 32.787828,111.919908 C32.7385723,111.93442 32.688676,111.948952 32.6387359,111.963331 C32.5550389,111.987426 32.4719553,112.010883 32.3887542,112.033914 C32.3617478,112.041391 32.3337497,112.04909 32.3057384,112.056741 C32.163611,112.095557 32.0219793,112.132917 31.8800305,112.169042 C31.1789514,112.347469 30.4699777,112.495819 29.7553662,112.613489 C29.5270538,112.651081 29.2984237,112.685506 29.0692878,112.716788 C29.0241786,112.722947 28.9791793,112.728966 28.934161,112.734864 C28.6941726,112.76631 28.453297,112.794346 28.2119592,112.818905 C28.2015307,112.819966 28.1905349,112.821078 28.1795382,112.822183 C27.9078292,112.849471 27.6360645,112.872318 27.3638324,112.890745 C27.1304186,112.906547 26.896344,112.919113 26.6619954,112.928402 C26.6149293,112.930269 26.5672432,112.932024 26.5195464,112.933644 C26.5031142,112.934201 26.487477,112.934717 26.4718386,112.935218 C26.2126442,112.943533 25.9524621,112.947838 25.6920629,112.948087 L25.7467122,112.947011 L25.6968451,112.948099 L25.6920629,112.948087 L25.6920629,187.051913 C25.9578105,187.052167 26.223332,187.056646 26.4885253,187.065322 C26.8345395,187.076638 27.1803707,187.095126 27.5254144,187.120715 C28.2363545,187.173428 28.9443607,187.256349 29.6470271,187.368914 C30.3699234,187.484718 31.0871956,187.631905 31.7966446,187.809887 C32.4005234,187.961372 32.9992383,188.135335 33.5909333,188.331289 C34.5108743,188.635954 35.4137331,188.993725 36.2945844,189.403287 C36.7938206,189.635405 37.2862802,189.88432 37.7707425,190.149645 C37.802839,190.167224 37.8347474,190.18479 37.8666208,190.202427 L37.7707425,190.149645 C38.035307,190.294539 38.2974865,190.444327 38.5571312,190.598969 C38.7011422,190.68474 38.8443978,190.77202 38.9868478,190.860786 L39.3456732,191.088638 C39.4653141,191.166043 39.5843601,191.244514 39.7027956,191.324045 C39.8517412,191.424082 39.9980437,191.524618 40.1433722,191.626786 C40.4651399,191.852998 40.7819752,192.087088 41.093716,192.329085 C41.2668751,192.463523 41.4371115,192.599295 41.6057462,192.737453 C42.292476,193.300085 42.9524371,193.902082 43.5821859,194.542644 L88.8765096,168.39246 C74.4555593,166.580426 63.264972,154.387247 63.0241216,139.532295 L63.0241216,139.532295 L63.0201585,139.043108 C63.0201585,132.294043 65.2803241,126.072868 69.0850478,121.095191 L42.9967091,106.033565 C42.9095728,106.116537 42.8219103,106.198807 42.7337304,106.280371 Z M134.894532,122.608845 L92.6018318,122.608845 C83.525439,122.608845 76.1675689,129.966715 76.1675689,139.043108 C76.1675689,148.119501 83.525439,155.477371 92.6020985,155.477371 L92.6020985,155.477371 L101.656561,155.477739 L102.142825,161.524237 C103.384907,176.969027 116.328482,188.969303 131.925831,188.969303 C144.385166,188.969303 155.402978,181.273482 159.814305,169.843485 L159.814305,169.843485 L161.437919,165.636609 L168.113454,165.636734 C179.995278,165.636734 189.627399,156.004613 189.627399,144.122789 C189.627399,132.240966 179.995278,122.608845 168.113454,122.608845 L168.113454,122.608845 L135.980117,122.608845 C135.834061,122.608845 135.691372,122.610291 135.551814,122.613195 L135.551814,122.613195 L135.410492,122.616135 L135.082024,122.609884 L134.894532,122.608845 Z M155.088578,38.2409505 L154.956787,38.4660085 C154.88493,38.5872679 154.812081,38.7078704 154.738252,38.8278049 C154.624216,39.0130531 154.507886,39.1966392 154.389259,39.3785914 C154.349648,39.4393429 154.310167,39.4993321 154.270437,39.5591412 C154.235626,39.6115467 154.200376,39.6641803 154.164932,39.7166726 C154.055462,39.8787987 153.94419,40.0395173 153.831106,40.1988591 C153.532684,40.6193494 153.221658,41.0302291 152.898562,41.4309703 C152.765602,41.5958816 152.630691,41.7589653 152.493778,41.920296 C152.447448,41.9748869 152.401197,42.0289196 152.354721,42.0827528 C152.223799,42.234398 152.0912,42.3843415 151.956853,42.5326714 C151.914994,42.5788846 151.873335,42.6245389 151.831511,42.6700383 C151.681322,42.8334304 151.528609,42.9952241 151.373791,43.1549663 C151.244965,43.2878909 151.114641,43.4194349 150.982885,43.5495317 C150.506043,44.020348 150.010847,44.4718683 149.49814,44.9032443 C149.461329,44.9342178 149.424068,44.9653854 149.386716,44.9964467 C149.334076,45.0402208 149.281407,45.0836587 149.228558,45.1268854 C149.055967,45.2680505 148.881627,45.4068345 148.70542,45.5433249 C148.67079,45.5701504 148.635794,45.5971124 148.600725,45.623984 C148.5454,45.6663741 148.490365,45.7081843 148.435154,45.7497718 C148.372418,45.7970285 148.309067,45.8442828 148.245487,45.8912441 C148.206468,45.920064 148.167452,45.9487079 148.128351,45.9772416 C148.048192,46.0357365 147.967628,46.0938004 147.886708,46.1513964 C147.859176,46.1709917 147.831801,46.1903939 147.804385,46.2097426 C147.611583,46.3458141 147.416486,46.4794314 147.219434,46.6103392 C146.932646,46.8008606 146.641742,46.9856264 146.34686,47.1644901 C146.151075,47.283245 145.95359,47.3993672 145.754402,47.5128411 C145.694487,47.5469736 145.634256,47.5809573 145.573872,47.6146988 C145.519289,47.6451971 145.464894,47.6753256 145.410376,47.7052575 C145.361208,47.7322535 145.311526,47.7593129 145.261742,47.786209 C145.183647,47.8283999 145.105575,47.8700452 145.027259,47.9112887 C144.982697,47.9347563 144.938015,47.9581147 144.893255,47.9813422 C144.830328,48.0139972 144.767327,48.0463516 144.704172,48.0784467 C144.625786,48.118282 144.547133,48.1577326 144.468246,48.1967806 C144.44652,48.2075348 144.424535,48.2183772 144.402532,48.2291884 C144.312324,48.2735103 144.222027,48.3172036 144.131431,48.3603699 C143.962704,48.4407616 143.793077,48.5192632 143.622438,48.5959141 C143.431167,48.6818343 143.238505,48.7654798 143.044606,48.8467611 C142.828138,48.9375045 142.610026,49.0253408 142.390422,49.1101776 C142.292733,49.1479163 142.194761,49.1850571 142.096498,49.2216001 C141.911102,49.2905464 141.724712,49.3573505 141.537317,49.4219977 C141.476303,49.4430457 141.415418,49.4637857 141.354428,49.4842978 C141.276281,49.5105812 141.197651,49.5365917 141.11885,49.5622229 C141.077075,49.5758103 141.035448,49.5892288 140.993773,49.6025413 C140.91367,49.62813 140.833258,49.6533684 140.752674,49.6782118 C140.697968,49.6950769 140.643263,49.7117358 140.588479,49.7282124 C140.500967,49.7545324 140.413244,49.7803907 140.325322,49.8057811 C140.285627,49.8172441 140.245932,49.8286007 140.206196,49.8398619 C140.112293,49.8664745 140.018058,49.8925835 139.923601,49.918155 C139.875867,49.9310769 139.828519,49.9437443 139.781117,49.9562765 C139.772056,49.9586723 139.762384,49.9612233 139.75271,49.9637687 L139.751712,109.461011 L168.113454,109.461435 C173.899458,109.461435 179.354337,110.879145 184.149668,113.386143 L216.806575,94.5319985 C216.640247,93.9317818 216.497238,93.3282563 216.377221,92.722645 C216.375412,92.7135186 216.373568,92.7041866 216.37173,92.6948542 C216.349355,92.5812673 216.327833,92.4678492 216.307113,92.3543668 C216.290623,92.2640557 216.274589,92.1733916 216.259065,92.0826906 C216.256618,92.0683969 216.254239,92.0544226 216.251872,92.0404475 L216.259065,92.0826906 C216.210208,91.797238 216.166411,91.5114191 216.127641,91.2253612 C216.062462,90.7444519 216.011493,90.2629137 215.974565,89.7813044 L215.963244,89.6274329 C215.960359,89.5864803 215.957574,89.5455276 215.954891,89.5045753 C215.949301,89.4192603 215.944154,89.3339966 215.939445,89.2487377 C215.936285,89.1915355 215.933316,89.1341928 215.930544,89.0768533 C215.926838,89.0001678 215.923483,88.923446 215.920483,88.8467323 C215.918054,88.7846102 215.915858,88.7225685 215.913895,88.6605335 C215.910797,88.5626961 215.908276,88.464925 215.906328,88.3671754 C215.90495,88.2980764 215.903855,88.2287416 215.903048,88.1594194 C215.902423,88.1056519 215.901972,88.0521033 215.901693,87.9985632 L215.903048,88.1594194 C215.8993,87.8372982 215.901767,87.5154496 215.9104,87.1940549 C215.915813,86.9924049 215.923679,86.7904521 215.933971,86.588724 C215.937087,86.52765 215.940426,86.4665934 215.943987,86.4055587 C215.947472,86.3458168 215.951169,86.2861277 215.955077,86.2264607 C215.959961,86.1519088 215.965166,86.0775361 215.9707,86.0032 C216.012355,85.4435957 216.072736,84.8857047 216.151558,84.3308642 C216.179132,84.1368103 216.208831,83.9439104 216.240758,83.7514218 C216.299397,83.3978815 216.365531,83.0458067 216.439104,82.6953732 C216.447662,82.6546071 216.456382,82.6135779 216.465204,82.5725716 C216.535465,82.2460111 216.612136,81.9211299 216.695209,81.5979073 C216.773064,81.2949654 216.856687,80.9929979 216.945907,80.6926627 C216.960237,80.6444262 216.974651,80.5964306 216.989208,80.5484774 C217.000033,80.5128163 217.011068,80.4767546 217.022183,80.4407174 C217.090753,80.2184249 217.162262,79.9974668 217.23682,79.7775008 C217.261555,79.7045242 217.286662,79.6315543 217.312104,79.5586964 C217.326526,79.5173989 217.340858,79.4766966 217.355295,79.4360298 C217.438627,79.2012679 217.525694,78.967071 217.61625,78.734149 C217.625662,78.7099393 217.635177,78.6855779 217.64473,78.6612306 L217.61625,78.734149 C217.68146,78.5664212 217.748479,78.3993545 217.8173,78.2329811 C217.892248,78.0517854 217.969511,77.8710056 218.048909,77.6910937 C218.069371,77.6447256 218.090161,77.5980005 218.111095,77.5513348 C218.209238,77.332561 218.310444,77.1153101 218.414792,76.8994384 C218.431297,76.8652929 218.447827,76.831293 218.464434,76.7973277 C218.5735,76.5742669 218.686014,76.3525364 218.801875,76.1323837 C218.827135,76.0843856 218.852576,76.0364234 218.878175,75.9885371 C218.910987,75.9271573 218.94417,75.8656999 218.977617,75.8043701 C219.071241,75.6326916 219.16696,75.4619498 219.264727,75.292249 L219.264727,75.292249 L155.088578,38.2409505 L155.088578,38.2409505 Z M111.607612,38.2401581 L47.4319216,75.292249 C47.5296887,75.4619498 47.6254074,75.6326916 47.7190666,75.8044335 C47.7524783,75.8656999 47.785662,75.9271573 47.8185826,75.9887403 C47.8440732,76.0364234 47.8695133,76.0843856 47.8947941,76.132423 C48.0106345,76.3525364 48.123149,76.5742669 48.2322944,76.7974909 C48.2510906,76.8359322 48.2698659,76.8745815 48.2885402,76.9132749 C48.3239293,76.9866027 48.3588746,77.0599163 48.3934584,77.133385 C48.4191215,77.1879 48.4447848,77.2429317 48.4702457,77.298049 C48.5034526,77.3699388 48.536097,77.4414901 48.5684008,77.5131824 C48.7391114,77.8920437 48.9002982,78.2748057 49.0518705,78.6611073 C49.0614719,78.6855779 49.0709866,78.7099393 49.0804632,78.7343146 L49.0518705,78.6611073 C49.0873972,78.7516516 49.1223957,78.8423904 49.1568647,78.9333186 C49.1936077,79.0302435 49.2298174,79.1275707 49.2654213,79.2251077 C49.2802486,79.2657305 49.294733,79.3057276 49.3091156,79.3457594 C49.3343276,79.4159265 49.3594986,79.4869779 49.3843492,79.5581363 C49.4099871,79.6315543 49.4350935,79.7045242 49.4598635,79.7776036 C49.4709327,79.8102605 49.481969,79.8430422 49.4929377,79.8758457 C49.5270324,79.9778047 49.5606242,80.0804451 49.5935543,80.1832909 C49.6100896,80.2349332 49.6264431,80.28658 49.64263,80.3382776 C49.6646184,80.4085063 49.6862475,80.4786586 49.7075697,80.5489019 C49.8671758,81.0746711 50.009692,81.6059769 50.1347421,82.1414725 C50.151635,82.2138086 50.1682696,82.2864902 50.1845824,82.3592465 C50.1934209,82.3986673 50.2021477,82.4380313 50.2107803,82.4774169 C50.2267034,82.5500636 50.242315,82.6228258 50.2576053,82.6956589 C50.2749668,82.7783535 50.2919712,82.8614258 50.3085576,82.9445868 C50.319806,83.000985 50.3308465,83.0573428 50.341695,83.1137403 C50.349468,83.1541494 50.3571387,83.1945589 50.3647109,83.2349885 C50.3860699,83.349018 50.4067217,83.4636506 50.4265809,83.5784343 C50.4560074,83.7485213 50.4836709,83.9187906 50.5095895,84.0893625 C50.5217632,84.1694764 50.5335647,84.2497464 50.5449796,84.3300804 L50.5095895,84.0893625 C50.6059826,84.723731 50.6782418,85.3622852 50.7259756,86.0035645 C50.7314828,86.0775361 50.7366875,86.1519088 50.7415621,86.2263159 C50.7454802,86.2861277 50.7491765,86.3458168 50.7526602,86.4055268 C50.7562229,86.4665934 50.7595617,86.52765 50.7626779,86.5887272 C50.7978093,87.2772914 50.8046624,87.9684765 50.7827558,88.6604836 C50.7807903,88.7225685 50.7785953,88.7846102 50.7761687,88.8466571 C50.7731655,88.923446 50.7698113,89.0001678 50.7661027,89.0768952 C50.7637516,89.1255377 50.7612558,89.1742243 50.7586171,89.2229126 C50.7200564,89.9345021 50.650954,90.6465987 50.5507954,91.3570994 C50.5234286,91.5512224 50.4937738,91.7450427 50.4617944,91.9387044 C50.4201482,92.190912 50.3745418,92.4429409 50.3249666,92.694613 C50.3230806,92.7041866 50.3212368,92.7135186 50.3193874,92.72285 C50.3015066,92.8130769 50.2830726,92.9034623 50.2641248,92.9937971 C50.1505918,93.5350889 50.0185725,94.0747095 49.8678626,94.6116364 C49.8541142,94.6606144 49.8403073,94.7092323 49.8263469,94.7578274 L49.8678626,94.6116364 C49.8512165,94.6709407 49.8343423,94.7302121 49.8172399,94.7894495 L80.0547572,112.246433 C83.8638788,110.459796 88.1162654,109.461435 92.6018318,109.461435 L92.6018318,109.461435 L126.604712,109.461011 L126.605334,49.8721222 C126.558908,49.8592049 126.512536,49.8461575 126.466218,49.8329805 C126.431374,49.8230678 126.39634,49.8130178 126.361337,49.8028938 C126.265409,49.7751467 126.170043,49.746941 126.074916,49.7181858 C126.033465,49.7056566 125.991746,49.6929266 125.950073,49.6800911 C125.858652,49.6519316 125.767647,49.6233259 125.676867,49.5942174 C125.61405,49.5740754 125.551289,49.5536756 125.488637,49.5330358 C125.439028,49.5166933 125.389357,49.500156 125.339754,49.483468 C125.269115,49.4597018 125.198831,49.435704 125.128688,49.411404 C125.040307,49.3807867 124.951952,49.349618 124.863825,49.3179703 C124.836664,49.308217 124.809048,49.2982451 124.781455,49.2882263 C124.705987,49.2608226 124.631273,49.233286 124.556726,49.205405 C124.377354,49.1383223 124.198511,49.0690684 124.020673,48.9978382 L123.940196,48.9654421 C123.892374,48.9460941 123.844624,48.926603 123.796948,48.9069693 C123.595198,48.8238853 123.394775,48.7382513 123.195713,48.6501046 C122.963572,48.5473189 122.73257,48.440775 122.503495,48.330857 C122.452594,48.306433 122.401765,48.2818312 122.351031,48.2570634 C122.161901,48.1647314 121.973986,48.0700311 121.787442,47.9730572 C121.715969,47.9359014 121.644879,47.8985089 121.573992,47.8607863 C121.517572,47.8307618 121.461545,47.8006717 121.405646,47.7703756 C121.348754,47.739542 121.291687,47.7083255 121.234755,47.6768943 C121.176302,47.6446229 121.118007,47.6121346 121.059856,47.5794213 C120.99507,47.5429753 120.930374,47.5062002 120.865859,47.4691466 C120.818223,47.4417865 120.770925,47.4144148 120.723725,47.3868935 C120.666085,47.3532851 120.608432,47.3193592 120.550927,47.2852102 C120.478853,47.2424101 120.40682,47.1991439 120.335024,47.1555276 C120.286693,47.1261654 120.238664,47.0967654 120.190742,47.0672088 C120.143358,47.0379837 120.096007,47.0085612 120.048761,46.9789857 C119.97699,46.934056 119.905726,46.8889423 119.834706,46.8434809 C119.643696,46.7212184 119.45387,46.5960451 119.265867,46.4683872 C119.23921,46.4502869 119.212247,46.4319028 119.185323,46.4134675 C119.109608,46.3616237 119.034515,46.3096026 118.959721,46.2571839 C118.750867,46.1108149 118.544065,45.9611365 118.339668,45.8084165 C118.194868,45.7002248 118.051378,45.5905873 117.909117,45.4794493 L117.862632,45.4430464 C117.808452,45.4005144 117.754451,45.3577642 117.70063,45.3147973 C117.547872,45.1928441 117.396666,45.0692252 117.246943,44.9438925 C117.204151,44.9080716 117.161415,44.8720552 117.118801,44.8358991 C117.068045,44.7928338 117.017714,44.7497872 116.967557,44.7065455 C116.90893,44.656005 116.850184,44.6048853 116.791679,44.5534977 C116.74384,44.5114786 116.696207,44.4693207 116.648737,44.426985 C116.614262,44.3962394 116.579952,44.3654718 116.545728,44.3346113 C116.269701,44.0857137 115.999225,43.8307714 115.734513,43.5699953 C115.697699,43.5337304 115.660847,43.4972017 115.624107,43.4605597 C115.594836,43.4313706 115.564731,43.4011958 115.534701,43.370945 C115.386259,43.2214065 115.239737,43.070063 115.095122,42.9168999 L115.063556,42.8834064 C114.706981,42.5043733 114.36206,42.1142523 114.029364,41.7136155 C113.987616,41.6633453 113.945639,41.6123926 113.903859,41.561272 C113.855584,41.5022019 113.807992,41.4434288 113.76066,41.3844372 C113.722771,41.3372158 113.684848,41.289599 113.647094,41.2418417 C113.601029,41.1835723 113.555106,41.12495 113.509439,41.0661191 C113.472768,41.0188751 113.436634,40.9719828 113.400662,40.9249595 C113.374551,40.8908272 113.34832,40.8563546 113.322177,40.8218122 L113.218598,40.6839798 C113.205226,40.6660586 113.191877,40.648119 113.178552,40.6301609 C113.042774,40.4471665 112.909679,40.2626206 112.779053,40.0762176 C112.672792,39.9245751 112.568485,39.7721821 112.465827,39.618593 C112.421956,39.552957 112.378313,39.4869906 112.334974,39.420807 C112.26953,39.3208662 112.204829,39.2205078 112.140828,39.1196616 C111.957281,38.8304473 111.779489,38.5372275 111.607612,38.2401581 Z M235.029048,77.493405 C230.526095,80.0931863 228.354809,85.1805947 229.248871,90.0175026 C229.25747,90.0673804 229.267012,90.1170482 229.276875,90.1666739 L229.248871,90.0175026 C229.267296,90.1171839 229.287023,90.2167588 229.308058,90.3162033 L229.276875,90.1666739 C229.297845,90.2721846 229.320265,90.3775052 229.344137,90.4826073 L229.308058,90.3162033 C229.329592,90.4180021 229.352496,90.5196643 229.376778,90.6211642 L229.344137,90.4826073 C229.367979,90.5875716 229.393269,90.6923179 229.420009,90.7968178 L229.376778,90.6211642 C229.401948,90.726373 229.428598,90.8314074 229.456736,90.9362387 L229.420009,90.7968178 C229.449578,90.91237 229.480921,91.0276209 229.51404,91.1425322 L229.456736,90.9362387 C229.484889,91.041127 229.514532,91.1458121 229.545673,91.2502652 L229.51404,91.1425322 C229.561644,91.3077003 229.612919,91.4721668 229.667873,91.6358178 C229.698486,91.7272611 229.730544,91.819066 229.76379,91.9106411 C229.796883,92.0014646 229.83119,92.0924737 229.866658,92.1831858 L229.76379,91.9106411 C229.807788,92.0318303 229.853868,92.152617 229.902041,92.272955 L229.866658,92.1831858 C229.903065,92.2762994 229.940695,92.3691001 229.97955,92.4615662 L229.902041,92.272955 C229.95201,92.3977779 230.004232,92.5221179 230.058721,92.6459236 L229.97955,92.4615662 C230.023505,92.5661689 230.069028,92.6703435 230.11612,92.7740585 L230.058721,92.6459236 C230.100939,92.7418479 230.144517,92.8374514 230.189463,92.9327102 L230.11612,92.7740585 C230.164752,92.8811641 230.215058,92.9877796 230.267041,93.0938701 L230.189463,92.9327102 C230.234424,93.028 230.280753,93.1229449 230.328456,93.2175207 L230.267041,93.0938701 C230.312823,93.1873051 230.359905,93.280333 230.40829,93.37293 L230.328456,93.2175207 C230.377841,93.3154306 230.428699,93.412945 230.481038,93.5100372 L230.654243,93.8204018 C230.870098,94.1942742 231.103775,94.553075 231.353796,94.8960896 C231.389042,94.9446374 231.424934,94.9931148 231.461139,95.0412533 L231.353796,94.8960896 C231.420363,94.9874161 231.488089,95.0776235 231.556946,95.1666985 L231.461139,95.0412533 C231.515835,95.1139756 231.571248,95.1859247 231.627362,95.2570963 L231.556946,95.1666985 C231.694128,95.3441603 231.835798,95.5171269 231.981736,95.6854918 C232.0031,95.7102609 232.024863,95.7351521 232.046716,95.7599367 L231.981736,95.6854918 C232.042469,95.7555572 232.10394,95.8248257 232.166135,95.8932895 L232.046716,95.7599367 C232.177143,95.9078601 232.310764,96.0519877 232.447414,96.1922747 C232.563187,96.3113521 232.681739,96.4281394 232.802484,96.5422136 C232.901158,96.6349361 233.001314,96.7262628 233.102815,96.8156898 C233.126498,96.8372801 233.150589,96.8583589 233.174759,96.8793346 L233.102815,96.8156898 C233.26255,96.9564224 233.425616,97.0924502 233.591793,97.2237138 C233.605812,97.2360157 233.620146,97.2473015 233.634505,97.2585529 L233.591793,97.2237138 C237.320542,100.169065 242.615487,100.715776 246.98124,98.1952075 C252.697885,94.894701 254.656552,87.5848555 251.356045,81.8682106 C248.055539,76.1515657 240.745693,74.1928985 235.029048,77.493405 Z M15.3406036,81.8682106 C12.0400971,87.5848555 13.9987643,94.894701 19.7154092,98.1952075 C24.4746157,100.942937 30.3380461,100.04561 34.0730038,96.369426 C34.1945452,96.2499655 34.3139707,96.1271591 34.4309292,96.0015617 C34.4580755,95.9724232 34.4857159,95.9424545 34.5132214,95.9123218 L34.4309292,96.0015617 C34.5048071,95.922227 34.5777006,95.8417786 34.6495842,95.7602291 L34.5132214,95.9123218 C34.5846502,95.8340703 34.6551691,95.7547133 34.7247517,95.6742576 L34.6495842,95.7602291 C34.716266,95.6845809 34.7820787,95.607985 34.8470018,95.5304516 L34.7247517,95.6742576 C34.7970429,95.5906702 34.8683236,95.505897 34.9385645,95.4199459 L34.8470018,95.5304516 C34.9119407,95.4528992 34.9759895,95.3744088 35.0391279,95.2949901 L34.9385645,95.4199459 C35.0155909,95.3256917 35.091367,95.2300209 35.165854,95.132944 L35.0391279,95.2949901 C35.0985893,95.2201966 35.1572431,95.1445799 35.2150722,95.0681482 L35.165854,95.132944 C35.2258042,95.0548126 35.2849193,94.9757703 35.3431793,94.8958225 L35.2150722,95.0681482 C35.2921625,94.9662594 35.3677873,94.8629224 35.441906,94.7581569 L35.3431793,94.8958225 C35.4044356,94.8117631 35.4647466,94.7267027 35.5240887,94.6406476 L35.441906,94.7581569 C35.6548209,94.4572053 35.855308,94.1444652 36.0424061,93.8204018 C36.1018736,93.717401 36.1596742,93.6138007 36.2158104,93.5096352 C36.2292607,93.4847161 36.2428096,93.4593663 36.256258,93.4339882 L36.2158104,93.5096352 C36.2692748,93.4104272 36.3212295,93.3107065 36.3716765,93.2105026 L36.256258,93.4339882 C36.3096052,93.333318 36.3613702,93.2322033 36.4115607,93.1306737 L36.3716765,93.2105026 C36.4200349,93.1144474 36.4670079,93.0179483 36.5125973,92.9210312 L36.4115607,93.1306737 C36.4630635,93.0264896 36.5129084,92.9218685 36.5611041,92.8168424 L36.5125973,92.9210312 C36.5625964,92.8147399 36.6109314,92.7079459 36.6576048,92.6006835 L36.5611041,92.8168424 C36.6162124,92.6967528 36.6691643,92.5761336 36.7199727,92.4550326 L36.6576048,92.6006835 C36.692182,92.5212199 36.7258473,92.4414992 36.7586017,92.3615355 L36.7199727,92.4550326 C36.7990061,92.2666578 36.8728529,92.0771171 36.9415612,91.8865901 C37.0175604,91.6755838 37.0873435,91.4635727 37.1509832,91.2503464 C37.1616944,91.2143134 37.1722352,91.1783341 37.182599,91.1423285 L37.1509832,91.2503464 C37.1820963,91.1461013 37.211741,91.0415658 37.2399195,90.9367686 L37.182599,91.1423285 C37.2157339,91.0272117 37.2470588,90.9118261 37.2765838,90.7962097 L37.2399195,90.9367686 C37.2680961,90.8319782 37.2948066,90.7269262 37.3200531,90.6216413 L37.2765838,90.7962097 C37.3032735,90.6916964 37.3284923,90.5869947 37.352248,90.4821326 L37.3200531,90.6216413 C37.3443758,90.5202092 37.3673396,90.4185609 37.3889466,90.3167223 L37.352248,90.4821326 C37.3760669,90.3769913 37.3984149,90.2716889 37.4192995,90.1662538 L37.3889466,90.3167223 C37.4100593,90.2172132 37.4298764,90.1175222 37.4483997,90.0176735 L37.4192995,90.1662538 C38.3861349,85.2852172 36.2167396,80.1198517 31.6676004,77.493405 C25.9509555,74.1928985 18.64111,76.1515657 15.3406036,81.8682106 Z M133.348324,13.7364212 C126.747311,13.7364212 121.396133,19.0875995 121.396133,25.6886125 C121.396133,30.8607224 124.681348,35.2655293 129.278911,36.930167 C129.306735,36.9409565 129.334382,36.9508294 129.362073,36.960602 L129.278911,36.930167 C129.37089,36.9634698 129.463394,36.9956759 129.556408,37.0267694 L129.362073,36.960602 C129.475014,37.0004617 129.588664,37.0386528 129.70299,37.0751529 L129.556408,37.0267694 C129.647764,37.057309 129.739612,37.0867753 129.831936,37.1151534 L129.70299,37.0751529 C129.776307,37.0985604 129.849902,37.1212726 129.923767,37.1432835 L129.831936,37.1151534 C130.172736,37.2199063 130.520029,37.3098314 130.873061,37.3841759 C130.92712,37.3954988 130.981247,37.406494 131.035488,37.4171202 L130.873061,37.3841759 C130.96303,37.4031223 131.053371,37.4210567 131.144073,37.4379668 L131.035488,37.4171202 C131.135094,37.4366338 131.235086,37.4549035 131.335446,37.4719165 L131.144073,37.4379668 C131.243342,37.4564742 131.343043,37.4737546 131.443159,37.4897917 L131.335446,37.4719165 C131.437909,37.4892859 131.540754,37.5053452 131.643962,37.5200807 L131.443159,37.4897917 C131.558886,37.5083293 131.675168,37.5252056 131.791979,37.5403953 L131.643962,37.5200807 C131.731923,37.5326392 131.820146,37.544236 131.908621,37.5548628 L131.791979,37.5403953 C131.902115,37.5547169 132.012721,37.5675392 132.123776,37.5788411 L131.908621,37.5548628 C132.001973,37.5660754 132.095605,37.5762079 132.189501,37.5852503 L132.123776,37.5788411 C132.223717,37.5890119 132.324022,37.5979513 132.424676,37.605644 L132.189501,37.5852503 C132.308086,37.5966702 132.427093,37.6063514 132.546491,37.6142734 L132.424676,37.605644 C132.519969,37.612927 132.615574,37.6190925 132.71148,37.6241275 L132.546491,37.6142734 C132.689262,37.6237462 132.832592,37.6307038 132.976432,37.6351115 L132.71148,37.6241275 C132.922359,37.6351986 133.134687,37.6408037 133.348324,37.6408037 L133.676145,37.6363949 C133.691514,37.6359811 133.706875,37.6355382 133.722229,37.6350664 L133.676023,37.636385 C133.778943,37.633607 133.881606,37.6295237 133.983993,37.6241476 L133.722229,37.6350664 C133.867541,37.6306011 134.012199,37.623542 134.15616,37.613934 L133.983993,37.6241476 C134.080269,37.6190924 134.176302,37.6128941 134.272074,37.6055633 L134.15616,37.613934 C134.273568,37.6060981 134.390512,37.5965668 134.506968,37.5853644 L134.272074,37.6055633 C134.372704,37.5978606 134.473048,37.5889077 134.573086,37.5787168 L134.506968,37.5853644 C134.602514,37.5761734 134.69773,37.5658574 134.792605,37.55443 L134.573086,37.5787168 C134.682977,37.5675222 134.7925,37.5548336 134.901631,37.5406673 L134.792605,37.55443 C134.879528,37.5439604 134.966164,37.5325578 135.052502,37.5202326 L134.901631,37.5406673 C135.019323,37.5253898 135.136559,37.5083936 135.25331,37.4896991 L135.052502,37.5202326 C135.155939,37.5054664 135.258949,37.4893758 135.361514,37.4719787 L135.25331,37.4896991 C135.353315,37.4736858 135.452965,37.4564265 135.552239,37.4379339 L135.361514,37.4719787 C135.461913,37.454949 135.561886,37.4366673 135.661416,37.4171502 L135.552239,37.4379339 C135.64299,37.421029 135.733427,37.4030934 135.823537,37.384137 L135.661416,37.4171502 C136.045466,37.3418411 136.422924,37.2481385 136.792835,37.1369976 C136.816221,37.1303058 136.839862,37.1231362 136.863475,37.1158947 L136.792835,37.1369976 C136.86006,37.1167996 136.927036,37.0960256 136.993757,37.0746814 L136.863475,37.1158947 C136.956175,37.0874662 137.048442,37.0579304 137.14026,37.0272989 L136.993757,37.0746814 C137.108204,37.0380698 137.2219,36.9997805 137.334817,36.9598425 L137.14026,37.0272989 C137.233146,36.9963111 137.325571,36.964202 137.417519,36.9309837 L137.334817,36.9598425 C137.620667,36.8587391 137.901524,36.7470697 138.176919,36.6253035 C138.192715,36.6197403 138.207707,36.6130879 138.222684,36.606405 L138.176919,36.6253035 C142.372702,34.7701296 145.300516,30.5712848 145.300516,25.6886125 C145.300516,19.0875995 139.949337,13.7364212 133.348324,13.7364212 Z" id="Combined-Shape"></path>
                    </g>
                </g>
            </g>
        </g>
    </g>
</svg>