<svg xmlns="http://www.w3.org/2000/svg" viewBox="0 0 96 96">
  <circle cx="48" cy="48" r="48" fill="#6747ED"/>
  <g
    fill="#fff"
    fill-rule="evenodd"
    clip-rule="evenodd"
    transform="translate(-88 -52)"
  >
    <path
      d="M135.3 106.2c-7.1 0-12.8-5.7-12.8-12.8 0-7.1 5.7-12.8 12.8-12.8s12.8 5.7 12.8 12.8c0 7.1-5.7 12.8-12.8 12.8Zm0-32C145.9 74.2 154.5 82.8 154.5 93.4S145.9 112.6 135.3 112.6 116.1 104 116.1 93.4 124.7 74.2 135.3 74.2Zm18.3 39.4c1.3 1.3 1.3 3.3 0 4.5l-12.8 12.8c-1.3 1.3-3.3 1.3-4.5 0-1.3-1.3-1.3-3.3 0-4.5l12.8-12.8c1.2-1.3 3.2-1.3 4.5 0ZM161 77.4a3.2 3.2 0 1 1-6.4 0 3.2 3.2 0 0 1 6.4 0Z"
    />
  </g>
</svg>
